<svg width="20" height="18" viewBox="0 0 20 18" fill="none" xmlns="http://www.w3.org/2000/svg">
<path fill-rule="evenodd" clip-rule="evenodd" d="M10.0989 -0.000183105C10.4022 -0.000183105 10.6794 0.171363 10.8148 0.442811L13.2544 5.3351L18.7124 6.11796C19.015 6.16136 19.2663 6.37332 19.3602 6.66418C19.4541 6.95504 19.374 7.27396 19.1539 7.486L15.2036 11.2915L16.1347 16.6632C16.1867 16.963 16.064 17.2664 15.8183 17.4458C15.5726 17.6253 15.2463 17.6499 14.9765 17.5091L10.1044 14.9682L5.22053 17.5095C4.95071 17.6499 4.62462 17.6251 4.37909 17.4456C4.13356 17.2661 4.01106 16.9629 4.06301 16.6632L4.99407 11.2915L1.04382 7.486C0.823714 7.27396 0.743653 6.95504 0.837509 6.66418C0.931366 6.37332 1.18274 6.16136 1.48527 6.11796L6.94332 5.3351L9.38293 0.442811C9.51829 0.171363 9.79553 -0.000183105 10.0989 -0.000183105ZM10.0989 2.5925L8.188 6.42445C8.07078 6.6595 7.84566 6.82205 7.58566 6.85934L3.33271 7.46935L6.40984 10.4338C6.60103 10.6179 6.68839 10.885 6.64306 11.1465L5.91548 15.3442L9.73554 13.3565C9.96722 13.2359 10.2432 13.2361 10.4747 13.3568L14.2819 15.3424L13.5546 11.1465C13.5093 10.885 13.5967 10.6179 13.7879 10.4338L16.865 7.46935L12.612 6.85934C12.352 6.82205 12.1269 6.6595 12.0097 6.42445L10.0989 2.5925Z" fill="#ff0000"/>
</svg>
