<svg width="17" height="20" viewBox="0 0 17 20" fill="none" xmlns="http://www.w3.org/2000/svg">
<path fill-rule="evenodd" clip-rule="evenodd" d="M8.2995 1.59982C7.73948 1.59982 7.19868 1.82715 6.7971 2.23782C6.39493 2.64909 6.16589 3.21064 6.16589 3.79982V4.99982H10.4331V3.79982C10.4331 3.21064 10.2041 2.64909 9.80189 2.23782C9.40031 1.82715 8.85951 1.59982 8.2995 1.59982ZM12.0331 4.99982V3.79982C12.0331 2.7977 11.644 1.83312 10.9459 1.11918C10.2471 0.404625 9.29556 -0.000183105 8.2995 -0.000183105C7.30343 -0.000183105 6.35188 0.404625 5.65315 1.11918C4.955 1.83312 4.56589 2.7977 4.56589 3.79982V4.99982H2.75606M4.56589 6.59982H2.75596C2.59211 6.5998 2.42952 6.63598 2.27934 6.70655C2.1291 6.77716 1.99409 6.88084 1.88434 7.01164C1.77454 7.1425 1.69277 7.29725 1.64572 7.46566C1.59868 7.63406 1.58772 7.81123 1.6138 7.98472C1.61379 7.98468 1.6138 7.98477 1.6138 7.98472L2.84102 16.1367C2.91982 16.6607 3.17894 17.1349 3.56681 17.4753C3.95423 17.8152 4.44479 17.9998 4.94932 17.9998C4.94931 17.9998 4.94933 17.9998 4.94932 17.9998H11.6497C12.1543 18 12.6453 17.8155 13.0329 17.4755C13.4209 17.1352 13.6801 16.6609 13.7589 16.1368L14.9862 7.98485C15.0123 7.81131 15.0013 7.6341 14.9542 7.46566C14.9072 7.29725 14.8254 7.1425 14.7156 7.01164C14.6059 6.88084 14.4709 6.77716 14.3206 6.70655C14.1705 6.63598 14.008 6.5998 13.8441 6.59982H12.0331V8.79982C12.0331 9.24164 11.6749 9.59982 11.2331 9.59982C10.7913 9.59982 10.4331 9.24164 10.4331 8.79982V6.59982H6.16589V8.79982C6.16589 9.24164 5.80772 9.59982 5.36589 9.59982C4.92406 9.59982 4.56589 9.24164 4.56589 8.79982V6.59982ZM12.0331 4.99982H13.8439C13.8439 4.99982 13.844 4.99982 13.8439 4.99982C14.244 4.99978 14.6389 5.08825 15.0011 5.25848C15.3633 5.4287 15.6838 5.67631 15.9413 5.9832C16.1988 6.29003 16.3874 6.64901 16.4952 7.03514C16.6031 7.42125 16.628 7.82629 16.5684 8.22279L15.3411 16.3748C15.3411 16.3748 15.3411 16.3747 15.3411 16.3748C15.2069 17.2676 14.7639 18.0854 14.088 18.6784C13.4116 19.2716 12.5468 19.6 11.6497 19.5998C11.6496 19.5998 11.6498 19.5998 11.6497 19.5998H4.94932C4.05238 19.5998 3.18774 19.2713 2.51155 18.6779C1.83582 18.085 1.39311 17.2675 1.25885 16.3749C1.25885 16.3749 1.25886 16.375 1.25885 16.3749L0.0316256 8.22291C-0.0280014 7.82641 -0.00313763 7.42125 0.104732 7.03514C0.212611 6.649 0.401203 6.29003 0.658659 5.9832C0.916162 5.67631 1.23663 5.4287 1.59884 5.25848C1.96108 5.08825 2.35596 4.99978 2.75606 4.99982" fill="#B0B0B0"/>
</svg>
