<svg width="18" height="18" viewBox="0 0 18 18" fill="none" xmlns="http://www.w3.org/2000/svg">
<path fill-rule="evenodd" clip-rule="evenodd" d="M5.30237 0.629079C6.30533 0.21364 7.38029 -0.000183105 8.46589 -0.000183105C9.55148 -0.000183105 10.6264 0.21364 11.6294 0.629079C12.6324 1.04452 13.5437 1.65344 14.3113 2.42107C15.0789 3.1887 15.6879 4.10001 16.1033 5.10297C16.5187 6.10593 16.7326 7.18089 16.7326 8.26648C16.7326 9.35208 16.5187 10.427 16.1033 11.43C15.7903 12.1857 15.3674 12.8894 14.8496 13.5188L17.5649 16.2341C17.8773 16.5466 17.8773 17.0531 17.5649 17.3655C17.2525 17.6779 16.746 17.6779 16.4335 17.3655L13.7182 14.6501C13.0888 15.168 12.3851 15.5909 11.6294 15.9039C10.6264 16.3193 9.55148 16.5332 8.46589 16.5332C7.38029 16.5332 6.30533 16.3193 5.30237 15.9039C4.29941 15.4885 3.3881 14.8795 2.62047 14.1119C1.85284 13.3443 1.24392 12.433 0.828481 11.43C0.413042 10.427 0.199219 9.35208 0.199219 8.26648C0.199219 7.18089 0.413042 6.10593 0.828481 5.10297C1.24392 4.10001 1.85284 3.1887 2.62047 2.42107C3.3881 1.65344 4.29941 1.04452 5.30237 0.629079ZM8.46589 1.59982C7.59041 1.59982 6.7235 1.77226 5.91466 2.10729C5.10583 2.44232 4.3709 2.93338 3.75184 3.55244C3.13278 4.1715 2.64172 4.90642 2.30669 5.71526C1.97166 6.5241 1.79922 7.39101 1.79922 8.26648C1.79922 9.14196 1.97166 10.0089 2.30669 10.8177C2.64172 11.6265 3.13278 12.3615 3.75184 12.9805C4.3709 13.5996 5.10583 14.0907 5.91466 14.4257C6.7235 14.7607 7.59041 14.9332 8.46589 14.9332C9.34137 14.9332 10.2083 14.7607 11.0171 14.4257C11.8259 14.0907 12.5609 13.5996 13.1799 12.9805C13.799 12.3615 14.2901 11.6265 14.6251 10.8177C14.9601 10.0089 15.1326 9.14196 15.1326 8.26648C15.1326 7.391 14.9601 6.5241 14.6251 5.71526C14.2901 4.90642 13.799 4.1715 13.1799 3.55244C12.5609 2.93338 11.8259 2.44232 11.0171 2.10729C10.2083 1.77226 9.34137 1.59982 8.46589 1.59982Z" fill="white"/>
</svg>
